<svg width="185" height="179" viewBox="0 0 185 179" fill="none" xmlns="http://www.w3.org/2000/svg">
<ellipse cx="96.4671" cy="84.3413" rx="71.1377" ry="7.81437" fill="#E6E7E8"/>
<path d="M51.1975 19.4012V34.7605L69.2514 42.0359V19.4012H51.1975Z" fill="#8FC549"/>
<path d="M75.449 11.0479V46.0779L93.5029 53.3533V11.0479H75.449Z" fill="#E75766"/>
<path d="M100.24 0V56.0479L118.293 63.3233V0H100.24Z" fill="#8FC549"/>
<path d="M12.3953 68.1736V87.3054L49.3114 57.3952L119.102 87.3054L155.21 60.3593L158.443 68.1736L167.335 40.9581L139.85 45.5389L147.126 48.7724L119.102 69.2515L49.3114 38.8024L12.3953 68.1736Z" fill="#126BA5"/>
<path d="M16.1318 158.673C14.6142 158.673 13.6025 158.144 13.0966 157.087C12.5908 155.983 12.3378 154.764 12.3378 153.431C12.3378 152.511 12.4068 151.614 12.5448 150.74C12.6827 149.821 12.8207 149.062 12.9587 148.464C13.3266 146.716 13.9244 144.647 14.7522 142.256C15.58 139.818 16.5227 137.266 17.5805 134.599C18.6842 131.885 19.8339 129.218 21.0296 126.597C22.2252 123.929 23.3749 121.446 24.4787 119.147C25.6284 116.801 26.6401 114.801 27.5139 113.145C26.4561 113.191 25.2375 113.191 23.8578 113.145C22.4782 113.053 21.0525 113.007 19.5809 113.007C17.0516 113.007 14.5452 113.214 12.0619 113.628C9.62452 113.996 7.62404 114.893 6.06045 116.318C5.32464 117.008 4.79578 117.744 4.47386 118.526C4.15195 119.308 3.99099 120.089 3.99099 120.871C3.99099 121.745 4.12895 122.596 4.40488 123.423C4.45087 123.515 4.47386 123.63 4.47386 123.768C4.47386 124.228 4.24392 124.458 3.78404 124.458C3.50812 124.458 3.30117 124.343 3.16321 124.113C2.70333 123.377 2.35841 122.642 2.12847 121.906C1.94452 121.124 1.85255 120.365 1.85255 119.629C1.85255 118.342 2.08249 117.123 2.54237 115.973C3.00225 114.824 3.5541 113.881 4.19794 113.145C5.80752 111.26 7.99195 110.018 10.7512 109.42C13.5105 108.776 16.3848 108.454 19.374 108.454C21.6734 108.454 23.9038 108.546 26.0652 108.73C28.2727 108.914 30.2272 109.052 31.9287 109.144C33.5383 109.236 35.5388 109.397 37.9301 109.627C40.3215 109.811 42.6439 109.903 44.8973 109.903C46.9208 109.903 48.7373 109.765 50.3469 109.489C51.9565 109.213 53.1292 108.707 53.865 107.972C54.003 108.247 54.0719 108.569 54.0719 108.937C54.0719 109.903 53.5201 110.846 52.4164 111.766C51.3127 112.685 49.8181 113.306 47.9325 113.628C47.3347 113.72 46.6449 113.789 45.8631 113.835C45.1273 113.881 44.3455 113.904 43.5177 113.904C42.1381 113.904 40.7584 113.881 39.3788 113.835C37.9991 113.743 36.7804 113.651 35.7227 113.559C34.665 113.467 33.9522 113.444 33.5843 113.49C33.3084 113.904 32.8715 114.663 32.2736 115.766C31.7218 116.87 31.1239 118.066 30.4801 119.354C29.8363 120.641 29.2614 121.814 28.7555 122.872C27.8818 124.711 26.962 126.781 25.9963 129.08C25.0305 131.379 24.1108 133.702 23.237 136.047C22.3632 138.393 21.6044 140.623 20.9606 142.738C20.3627 144.854 19.9718 146.67 19.7879 148.188C19.7419 148.326 19.7189 148.487 19.7189 148.671C19.7189 148.809 19.7189 148.947 19.7189 149.085C19.7189 149.959 19.8799 150.717 20.2018 151.361C20.5697 151.959 21.1215 152.258 21.8573 152.258C22.5012 152.258 23.283 151.913 24.2027 151.223C25.1225 150.533 26.1802 149.384 27.3759 147.774C27.6058 147.498 27.8128 147.36 27.9967 147.36C28.2727 147.36 28.4106 147.59 28.4106 148.05C28.4106 148.372 28.2957 148.809 28.0657 149.361C27.8818 149.913 27.5369 150.556 27.031 151.292C26.6171 151.89 25.9503 152.695 25.0305 153.707C24.1108 154.672 23.214 155.5 22.3402 156.19C21.5584 156.834 20.5927 157.409 19.443 157.915C18.2933 158.42 17.1896 158.673 16.1318 158.673ZM43.1324 157.639C41.6608 157.639 40.603 157.018 39.9592 155.776C39.4533 154.672 39.2004 153.362 39.2004 151.844C39.2004 150.143 39.4533 148.257 39.9592 146.188C40.4651 144.118 41.1549 142.003 42.0287 139.841C42.3506 139.059 42.7645 138.071 43.2703 136.875C43.8222 135.679 44.466 134.507 45.2018 133.357C44.558 133.909 43.7992 134.369 42.9254 134.737C42.0516 135.058 41.2009 135.219 40.3731 135.219C39.7293 135.219 39.2004 135.127 38.7865 134.943C38.4186 135.679 37.8207 136.875 36.993 138.531C36.1652 140.186 35.0615 142.141 33.6818 144.394C33.5439 144.624 33.4059 144.624 33.2679 144.394C33.176 144.118 33.13 143.75 33.13 143.29C33.13 142.922 33.176 142.532 33.2679 142.118C33.3599 141.704 33.4979 141.313 33.6818 140.945C34.1417 140.071 34.6016 139.174 35.0615 138.255C35.5213 137.289 35.9352 136.438 36.3031 135.702C36.671 134.966 36.878 134.507 36.924 134.323C36.0962 133.909 35.4754 133.334 35.0615 132.598C34.6476 131.816 34.4406 131.057 34.4406 130.322C34.4406 129.586 34.6016 128.919 34.9235 128.321C35.2914 127.723 35.8203 127.263 36.5101 126.942C36.924 126.804 37.3149 126.735 37.6828 126.735C38.6945 126.735 39.5223 127.057 40.1661 127.7C40.1202 127.884 40.0742 128.091 40.0282 128.321C40.0282 128.505 40.0282 128.712 40.0282 128.942C40.0282 130.368 40.603 131.425 41.7527 132.115C42.9024 132.805 44.1441 133.058 45.4778 132.874C46.1216 131.954 46.8574 131.149 47.6852 130.46C48.513 129.77 49.4097 129.425 50.3755 129.425C50.8813 129.425 51.5942 129.448 52.5139 129.494C53.4797 129.54 54.1695 129.54 54.5834 129.494C54.3075 129.678 53.9855 130.046 53.6176 130.598C53.2497 131.149 52.9048 131.724 52.5829 132.322C52.261 132.92 52.0081 133.38 51.8241 133.702C50.5824 136.093 49.4327 138.485 48.375 140.876C47.3173 143.221 46.5125 145.475 45.9606 147.636C45.8687 148.05 45.7767 148.441 45.6847 148.809C45.6387 149.131 45.6157 149.476 45.6157 149.844C45.6157 151.223 46.0756 151.913 46.9954 151.913C47.6392 151.913 48.559 151.453 49.7546 150.533C50.8124 149.66 51.7551 148.694 52.5829 147.636C53.5027 146.44 54.3764 145.153 55.2042 143.773C56.032 142.394 56.7448 141.129 57.3427 139.979C57.5726 139.611 57.7336 139.427 57.8255 139.427C58.1015 139.427 58.2394 139.841 58.2394 140.669C58.2394 140.991 58.1934 141.382 58.1015 141.842C58.0095 142.302 57.8485 142.738 57.6186 143.152C56.9288 144.302 56.147 145.567 55.2732 146.946C54.3994 148.28 53.5027 149.591 52.5829 150.878C51.9851 151.706 51.1343 152.649 50.0306 153.707C48.9728 154.764 47.8231 155.684 46.5815 156.466C45.3858 157.248 44.2361 157.639 43.1324 157.639ZM75.8961 157.57C74.4705 157.57 73.4818 157.018 72.9299 155.914C72.424 154.81 72.1711 153.454 72.1711 151.844C72.1711 150.372 72.3091 148.924 72.585 147.498C72.723 146.854 72.8609 146.211 72.9989 145.567C73.1828 144.877 73.3898 144.164 73.6197 143.428C72.8379 144.854 72.0102 146.234 71.1364 147.567C70.3086 148.901 69.4578 150.074 68.584 151.085C67.1124 152.879 65.5488 154.373 63.8933 155.569C62.2837 156.765 60.6741 157.363 59.0645 157.363C57.7769 157.363 56.6731 156.903 55.7534 155.983C54.8796 155.017 54.4427 153.362 54.4427 151.016C54.4427 148.625 54.8566 146.165 55.6844 143.635C56.5122 141.106 57.6619 138.76 59.1335 136.599C60.6511 134.392 62.4216 132.621 64.4451 131.287C66.5146 129.954 68.768 129.287 71.2054 129.287C71.9872 129.287 72.8379 129.402 73.7577 129.632C74.6775 129.862 75.5282 130.299 76.31 130.943C77.0918 131.54 77.6207 132.391 77.8966 133.495C77.9426 133.403 77.9886 133.334 78.0346 133.288C78.1266 133.242 78.1955 133.196 78.2415 133.15C78.8854 132.138 79.6212 131.287 80.449 130.598C81.2767 129.908 82.1965 129.563 83.2082 129.563C83.7141 129.563 84.4269 129.586 85.3467 129.632C86.2664 129.678 86.9333 129.678 87.3472 129.632C87.1172 129.816 86.7953 130.184 86.3814 130.736C86.0135 131.287 85.6686 131.862 85.3467 132.46C85.0248 133.012 84.7718 133.449 84.5879 133.771C83.3462 136.162 82.2195 138.531 81.2078 140.876C80.196 143.221 79.4142 145.475 78.8624 147.636C78.7244 148.096 78.6324 148.533 78.5864 148.947C78.5405 149.315 78.5175 149.683 78.5175 150.051C78.5175 151.246 78.9084 151.844 79.6902 151.844C80.426 151.844 81.3457 151.384 82.4494 150.464C84.059 149.177 85.4616 147.567 86.6573 145.636C87.899 143.704 88.9797 141.842 89.8995 140.048C90.0834 139.726 90.2444 139.565 90.3824 139.565C90.6583 139.565 90.7963 139.956 90.7963 140.738C90.7963 141.106 90.7273 141.52 90.5893 141.98C90.4973 142.44 90.3364 142.876 90.1064 143.29C89.4626 144.394 88.6118 145.751 87.5541 147.36C86.5424 148.97 85.3927 150.556 84.105 152.12C82.8173 153.638 81.4607 154.925 80.0351 155.983C78.6554 157.041 77.2758 157.57 75.8961 157.57ZM62.1687 151.568C62.3067 151.614 62.5136 151.637 62.7896 151.637C63.6633 151.637 64.6061 151.269 65.6178 150.533C66.6296 149.798 67.6413 148.855 68.653 147.705C69.6648 146.509 70.5615 145.314 71.3433 144.118C73.3668 140.899 74.8614 138.485 75.8272 136.875C76.7929 135.265 77.3448 134.346 77.4827 134.116C77.2528 133.334 76.8389 132.759 76.2411 132.391C75.6892 132.023 75.0224 131.839 74.2406 131.839C73.2288 131.839 72.1481 132.115 70.9984 132.667C69.8947 133.219 68.9519 133.886 68.1702 134.668C66.9745 135.863 65.8248 137.404 64.7211 139.289C63.6633 141.175 62.7896 143.037 62.0997 144.877C61.4559 146.716 61.134 148.257 61.134 149.499C61.134 150.648 61.4789 151.338 62.1687 151.568ZM96.4291 157.846C94.2676 157.846 92.5201 157.455 91.1864 156.673C89.8528 155.845 88.887 154.764 88.2892 153.431C87.7373 152.051 87.4614 150.579 87.4614 149.016C87.4614 147.452 87.6913 145.866 88.1512 144.256C88.6111 142.646 89.2319 141.129 90.0137 139.703C91.6233 136.806 93.6008 134.415 95.9462 132.529C98.3376 130.644 101.258 129.701 104.707 129.701C106.868 129.701 108.547 130.253 109.743 131.356C110.938 132.46 111.536 133.748 111.536 135.219C111.536 136.599 111.122 137.864 110.294 139.013C109.513 140.163 108.455 140.738 107.121 140.738C106.385 140.738 105.742 140.531 105.19 140.117C104.638 139.703 104.362 139.059 104.362 138.186C104.362 138.048 104.362 137.91 104.362 137.772C104.408 137.588 104.454 137.404 104.5 137.22C104.776 137.174 105.167 137.105 105.673 137.013C106.225 136.875 106.661 136.553 106.983 136.047C107.581 135.219 107.88 134.392 107.88 133.564C107.88 133.058 107.719 132.644 107.397 132.322C107.121 131.954 106.638 131.77 105.949 131.77C104.707 131.77 103.442 132.23 102.155 133.15C100.867 134.024 99.6482 135.196 98.4985 136.668C97.3948 138.14 96.4291 139.749 95.6013 141.497C94.3136 144.302 93.6698 146.877 93.6698 149.223C93.6698 150.924 94.0607 152.327 94.8425 153.431C95.6243 154.488 96.866 155.017 98.5675 155.017C100.729 155.017 102.752 154.281 104.638 152.81C106.569 151.292 108.294 149.545 109.812 147.567C110.823 146.28 111.72 144.969 112.502 143.635C113.33 142.302 114.019 141.083 114.571 139.979C114.755 139.657 114.916 139.496 115.054 139.496C115.33 139.496 115.468 139.887 115.468 140.669C115.468 141.037 115.399 141.474 115.261 141.98C115.169 142.44 115.008 142.876 114.778 143.29C113.996 144.578 113.192 145.866 112.364 147.153C111.582 148.441 110.731 149.66 109.812 150.809C108.248 152.833 106.408 154.511 104.293 155.845C102.178 157.179 99.5563 157.846 96.4291 157.846ZM107.839 157.156C108.344 156.236 108.919 155.063 109.563 153.638C110.161 152.212 110.759 150.671 111.357 149.016C112.001 147.314 112.575 145.682 113.081 144.118C114.231 140.577 115.404 137.082 116.599 133.633C117.841 130.184 119.083 127.195 120.324 124.665C120.83 123.561 121.474 122.228 122.256 120.664C123.038 119.055 123.911 117.399 124.877 115.697C125.889 113.996 126.97 112.409 128.119 110.938C129.315 109.42 130.58 108.201 131.913 107.282C133.293 106.362 134.719 105.902 136.19 105.902C137.662 105.902 138.651 106.224 139.156 106.868C139.708 107.512 139.984 108.316 139.984 109.282C139.984 110.34 139.754 111.467 139.294 112.662C138.835 113.858 138.398 114.847 137.984 115.629C137.064 117.376 135.868 119.354 134.397 121.561C132.971 123.722 131.476 125.746 129.913 127.631C129.131 128.597 128.188 129.701 127.085 130.943C125.981 132.138 124.877 133.288 123.773 134.392C122.716 135.495 121.796 136.438 121.014 137.22L119.772 140.669C120.968 139.105 122.233 137.703 123.566 136.461C124.9 135.219 126.349 133.978 127.912 132.736C129.062 131.816 130.258 131.126 131.499 130.667C132.787 130.207 133.96 129.977 135.018 129.977C135.799 129.977 136.512 130.092 137.156 130.322C137.846 130.552 138.352 130.92 138.674 131.425C138.904 131.747 139.064 132.092 139.156 132.46C139.248 132.828 139.294 133.196 139.294 133.564C139.294 134.3 139.156 135.012 138.881 135.702C138.283 137.128 137.409 138.347 136.259 139.358C135.155 140.324 133.891 141.06 132.465 141.566C131.959 141.75 131.292 141.957 130.465 142.187C129.637 142.417 128.901 142.577 128.257 142.669C128.349 143.313 128.418 143.957 128.464 144.601C128.556 145.245 128.648 145.889 128.74 146.532C129.016 148.096 129.361 149.43 129.775 150.533C130.235 151.637 130.948 152.189 131.913 152.189C132.787 152.189 133.96 151.614 135.431 150.464C136.489 149.637 137.409 148.694 138.191 147.636C139.11 146.44 139.984 145.176 140.812 143.842C141.64 142.463 142.353 141.198 142.95 140.048C143.134 139.726 143.295 139.565 143.433 139.565C143.709 139.565 143.847 139.933 143.847 140.669C143.847 141.083 143.778 141.543 143.64 142.049C143.548 142.509 143.364 142.968 143.088 143.428C142.445 144.532 141.686 145.728 140.812 147.015C139.984 148.303 139.11 149.568 138.191 150.809C137.685 151.499 137.041 152.258 136.259 153.086C135.477 153.914 134.65 154.672 133.776 155.362C132.994 155.96 132.051 156.512 130.948 157.018C129.844 157.478 128.763 157.708 127.705 157.708C126.878 157.708 126.096 157.524 125.36 157.156C124.67 156.788 124.095 156.167 123.635 155.293C123.13 154.327 122.739 153.178 122.463 151.844C122.187 150.51 122.049 149.177 122.049 147.843C122.049 147.107 122.072 146.395 122.118 145.705C122.21 144.969 122.348 144.302 122.532 143.704C122.762 142.922 122.992 142.394 123.222 142.118C123.452 141.842 123.75 141.704 124.118 141.704C125.452 141.658 126.763 141.474 128.05 141.152C129.338 140.784 130.419 140.209 131.292 139.427C132.35 138.508 132.879 137.473 132.879 136.323C132.879 135.817 132.695 135.38 132.327 135.012C132.005 134.599 131.453 134.392 130.672 134.392C129.614 134.392 128.579 134.737 127.567 135.426C126.556 136.116 125.59 137.013 124.67 138.117C123.75 139.22 122.9 140.37 122.118 141.566C121.336 142.715 120.669 143.773 120.117 144.739C119.704 145.429 119.244 146.326 118.738 147.429C118.232 148.533 117.703 149.683 117.151 150.878C116.599 152.074 116.047 153.155 115.496 154.12C114.944 155.086 114.415 155.799 113.909 156.259C113.311 156.857 112.69 157.156 112.046 157.156H107.839ZM122.808 132.529C125.107 129.862 127.361 127.057 129.568 124.113C131.775 121.17 133.661 118.158 135.224 115.077C135.362 114.847 135.592 114.364 135.914 113.628C136.236 112.892 136.535 112.087 136.811 111.214C137.133 110.34 137.294 109.581 137.294 108.937C137.294 108.109 136.972 107.696 136.328 107.696C135.684 107.696 134.903 108.247 133.983 109.351C133.109 110.455 132.166 111.926 131.155 113.766C130.189 115.56 129.2 117.56 128.188 119.767C127.177 121.929 126.211 124.136 125.291 126.39C124.371 128.597 123.544 130.644 122.808 132.529ZM144.257 157.156C144.809 154.856 145.544 152.304 146.464 149.499C147.43 146.647 148.511 143.681 149.706 140.6C150.948 137.519 152.213 134.461 153.5 131.425C154.788 128.39 156.03 125.493 157.225 122.734C158.421 119.928 159.801 117.1 161.364 114.249C161.686 113.697 161.962 113.191 162.192 112.731C162.468 112.271 162.767 111.88 163.089 111.559C161.295 111.605 159.364 111.835 157.294 112.248C155.271 112.616 153.316 113.145 151.431 113.835C149.591 114.525 148.005 115.33 146.671 116.249C145.383 117.169 144.556 118.181 144.188 119.285C144.142 119.423 144.05 119.492 143.912 119.492C143.498 119.492 143.291 119.17 143.291 118.526C143.291 118.388 143.337 118.181 143.429 117.905C143.843 116.709 144.349 115.652 144.947 114.732C145.59 113.812 146.234 113.03 146.878 112.386C148.396 110.823 150.097 109.88 151.983 109.558C153.868 109.19 155.869 109.006 157.984 109.006H173.574C172.47 109.834 171.298 111.191 170.056 113.076C168.814 114.916 167.596 116.985 166.4 119.285C165.204 121.584 164.078 123.837 163.02 126.045C162.008 128.252 161.157 130.115 160.468 131.632C160.146 132.368 159.686 133.495 159.088 135.012C158.49 136.484 157.823 138.163 157.087 140.048C156.398 141.934 155.731 143.888 155.087 145.912C154.443 147.889 153.914 149.729 153.5 151.43C153.086 153.132 152.88 154.534 152.88 155.638C152.88 155.96 152.903 156.259 152.949 156.535C153.04 156.765 153.109 156.972 153.155 157.156H144.257ZM168.902 157.57C167.569 157.57 166.557 157.041 165.867 155.983C165.545 155.477 165.315 154.879 165.177 154.189C165.039 153.5 164.97 152.787 164.97 152.051C164.97 151.315 165.016 150.579 165.108 149.844C165.2 149.062 165.315 148.303 165.453 147.567C165.683 146.372 165.936 145.291 166.212 144.325C166.534 143.313 166.856 142.348 167.178 141.428V141.359C166.81 142.049 166.35 142.807 165.798 143.635C165.246 144.417 164.855 144.992 164.625 145.36C164.303 145.866 164.05 146.119 163.867 146.119C163.683 146.119 163.591 145.912 163.591 145.498C163.591 144.578 163.867 143.566 164.418 142.463C164.786 141.727 165.292 140.784 165.936 139.634C166.58 138.439 167.247 137.151 167.936 135.771C168.626 134.392 169.224 133.058 169.73 131.77H165.108C164.878 131.77 164.832 131.586 164.97 131.218C165.108 130.851 165.315 130.506 165.591 130.184C165.867 129.816 166.074 129.632 166.212 129.632H171.455C171.96 128.436 172.535 127.149 173.179 125.769C173.869 124.389 174.628 123.102 175.456 121.906C176.329 120.664 177.272 119.652 178.284 118.871C179.296 118.089 180.376 117.698 181.526 117.698C182.032 117.698 182.653 117.698 183.388 117.698C184.17 117.698 184.653 117.675 184.837 117.629C183.871 118.273 182.745 119.56 181.457 121.492C180.169 123.377 178.767 126.091 177.249 129.632H184.216C184.354 129.632 184.308 129.816 184.078 130.184C183.848 130.506 183.549 130.851 183.182 131.218C182.86 131.586 182.538 131.77 182.216 131.77H176.283C175.685 133.288 175.019 134.943 174.283 136.737C173.593 138.531 172.949 140.301 172.351 142.049C171.799 143.75 171.386 145.314 171.11 146.739C170.926 147.613 170.834 148.418 170.834 149.154C170.834 150.901 171.386 151.775 172.489 151.775C173.225 151.775 174.099 151.407 175.111 150.671C176.122 149.936 177.134 148.924 178.146 147.636C179.066 146.44 179.939 145.153 180.767 143.773C181.641 142.394 182.377 141.129 182.975 139.979C183.159 139.657 183.319 139.496 183.457 139.496C183.733 139.496 183.871 139.864 183.871 140.6C183.871 140.968 183.802 141.405 183.664 141.911C183.572 142.371 183.388 142.83 183.113 143.29C182.469 144.394 181.71 145.613 180.836 146.946C179.962 148.234 179.066 149.522 178.146 150.809C177.502 151.637 176.651 152.58 175.593 153.638C174.582 154.695 173.478 155.615 172.282 156.397C171.133 157.179 170.006 157.57 168.902 157.57Z" fill="#126BA5"/>
</svg>
